<?xml version="1.0" encoding="UTF-8" standalone="no"?><svg xmlns="http://www.w3.org/2000/svg" xmlns:xlink="http://www.w3.org/1999/xlink" contentScriptType="application/ecmascript" contentStyleType="text/css" height="417px" preserveAspectRatio="none" style="width:491px;height:417px;background:#FFFFFF;" version="1.1" viewBox="0 0 491 417" width="491px" zoomAndPan="magnify"><defs><filter height="300%" id="f1oaxjc189b877" width="300%" x="-1" y="-1"><feGaussianBlur result="blurOut" stdDeviation="2.0"/><feColorMatrix in="blurOut" result="blurOut2" type="matrix" values="0 0 0 0 0 0 0 0 0 0 0 0 0 0 0 0 0 0 .4 0"/><feOffset dx="4.0" dy="4.0" in="blurOut2" result="blurOut3"/><feBlend in="SourceGraphic" in2="blurOut3" mode="normal"/></filter></defs><g><line style="stroke:#A80036;stroke-width:1.0;stroke-dasharray:5.0,5.0;" x1="66" x2="66" y1="67.2969" y2="349.4922"/><line style="stroke:#A80036;stroke-width:1.0;stroke-dasharray:5.0,5.0;" x1="201" x2="201" y1="67.2969" y2="349.4922"/><line style="stroke:#A80036;stroke-width:1.0;stroke-dasharray:5.0,5.0;" x1="335.5" x2="335.5" y1="67.2969" y2="349.4922"/><line style="stroke:#A80036;stroke-width:1.0;stroke-dasharray:5.0,5.0;" x1="435.5" x2="435.5" y1="67.2969" y2="349.4922"/><rect fill="#FEFECE" filter="url(#f1oaxjc189b877)" height="30.2969" style="stroke:#A80036;stroke-width:1.5;" width="118" x="5" y="32"/><text fill="#000000" font-family="sans-serif" font-size="14" lengthAdjust="spacing" textLength="104" x="12" y="51.9951">UserController</text><rect fill="#FEFECE" filter="url(#f1oaxjc189b877)" height="30.2969" style="stroke:#A80036;stroke-width:1.5;" width="118" x="5" y="348.4922"/><text fill="#000000" font-family="sans-serif" font-size="14" lengthAdjust="spacing" textLength="104" x="12" y="368.4873">UserController</text><rect fill="#FEFECE" filter="url(#f1oaxjc189b877)" height="30.2969" style="stroke:#A80036;stroke-width:1.5;" width="98" x="150" y="32"/><text fill="#000000" font-family="sans-serif" font-size="14" lengthAdjust="spacing" textLength="84" x="157" y="51.9951">UserService</text><rect fill="#FEFECE" filter="url(#f1oaxjc189b877)" height="30.2969" style="stroke:#A80036;stroke-width:1.5;" width="98" x="150" y="348.4922"/><text fill="#000000" font-family="sans-serif" font-size="14" lengthAdjust="spacing" textLength="84" x="157" y="368.4873">UserService</text><text fill="#000000" font-family="sans-serif" font-size="14" lengthAdjust="spacing" textLength="83" x="291.5" y="63.9951">DB_user.sql</text><path d="M318,15 C318,5 336,5 336,5 C336,5 354,5 354,15 L354,41 C354,51 336,51 336,51 C336,51 318,51 318,41 L318,15 " fill="#FEFECE" filter="url(#f1oaxjc189b877)" style="stroke:#000000;stroke-width:1.5;"/><path d="M318,15 C318,25 336,25 336,25 C336,25 354,25 354,15 " fill="none" style="stroke:#000000;stroke-width:1.5;"/><text fill="#000000" font-family="sans-serif" font-size="14" lengthAdjust="spacing" textLength="83" x="291.5" y="361.4873">DB_user.sql</text><path d="M318,374.7891 C318,364.7891 336,364.7891 336,364.7891 C336,364.7891 354,364.7891 354,374.7891 L354,400.7891 C354,410.7891 336,410.7891 336,410.7891 C336,410.7891 318,410.7891 318,400.7891 L318,374.7891 " fill="#FEFECE" filter="url(#f1oaxjc189b877)" style="stroke:#000000;stroke-width:1.5;"/><path d="M318,374.7891 C318,384.7891 336,384.7891 336,384.7891 C336,384.7891 354,384.7891 354,374.7891 " fill="none" style="stroke:#000000;stroke-width:1.5;"/><rect fill="#FEFECE" filter="url(#f1oaxjc189b877)" height="30.2969" style="stroke:#A80036;stroke-width:1.5;" width="87" x="390.5" y="32"/><text fill="#000000" font-family="sans-serif" font-size="14" lengthAdjust="spacing" textLength="73" x="397.5" y="51.9951">Exception</text><rect fill="#FEFECE" filter="url(#f1oaxjc189b877)" height="30.2969" style="stroke:#A80036;stroke-width:1.5;" width="87" x="390.5" y="348.4922"/><text fill="#000000" font-family="sans-serif" font-size="14" lengthAdjust="spacing" textLength="73" x="397.5" y="368.4873">Exception</text><polygon fill="#A80036" points="189,94.4297,199,98.4297,189,102.4297,193,98.4297" style="stroke:#A80036;stroke-width:1.0;"/><line style="stroke:#A80036;stroke-width:1.0;" x1="66" x2="195" y1="98.4297" y2="98.4297"/><text fill="#000000" font-family="sans-serif" font-size="13" font-weight="bold" lengthAdjust="spacing" textLength="9" x="73" y="93.3638">1</text><text fill="#000000" font-family="sans-serif" font-size="13" lengthAdjust="spacing" textLength="43" x="86" y="93.3638">id user</text><polygon fill="#A80036" points="324,123.5625,334,127.5625,324,131.5625,328,127.5625" style="stroke:#A80036;stroke-width:1.0;"/><line style="stroke:#A80036;stroke-width:1.0;" x1="201" x2="330" y1="127.5625" y2="127.5625"/><text fill="#000000" font-family="sans-serif" font-size="13" font-weight="bold" lengthAdjust="spacing" textLength="9" x="208" y="122.4966">2</text><text fill="#000000" font-family="sans-serif" font-size="13" lengthAdjust="spacing" textLength="43" x="221" y="122.4966">id user</text><polygon fill="#A80036" points="212,152.6953,202,156.6953,212,160.6953,208,156.6953" style="stroke:#A80036;stroke-width:1.0;"/><line style="stroke:#A80036;stroke-width:1.0;" x1="206" x2="335" y1="156.6953" y2="156.6953"/><text fill="#000000" font-family="sans-serif" font-size="13" font-weight="bold" lengthAdjust="spacing" textLength="8" x="218" y="151.6294">3</text><text fill="#000000" font-family="sans-serif" font-size="13" lengthAdjust="spacing" textLength="28" x="230" y="151.6294">user</text><polygon fill="#A80036" points="77,181.8281,67,185.8281,77,189.8281,73,185.8281" style="stroke:#A80036;stroke-width:1.0;"/><line style="stroke:#A80036;stroke-width:1.0;" x1="71" x2="200" y1="185.8281" y2="185.8281"/><text fill="#000000" font-family="sans-serif" font-size="13" font-weight="bold" lengthAdjust="spacing" textLength="9" x="83" y="180.7622">4</text><text fill="#000000" font-family="sans-serif" font-size="13" lengthAdjust="spacing" textLength="28" x="96" y="180.7622">user</text><polygon fill="#A80036" points="189,210.9609,199,214.9609,189,218.9609,193,214.9609" style="stroke:#A80036;stroke-width:1.0;"/><line style="stroke:#A80036;stroke-width:1.0;" x1="66" x2="195" y1="214.9609" y2="214.9609"/><text fill="#000000" font-family="sans-serif" font-size="13" font-weight="bold" lengthAdjust="spacing" textLength="9" x="73" y="209.895">5</text><text fill="#000000" font-family="sans-serif" font-size="13" lengthAdjust="spacing" textLength="98" x="86" y="209.895">Another id user</text><polygon fill="#A80036" points="324,240.0938,334,244.0938,324,248.0938,328,244.0938" style="stroke:#A80036;stroke-width:1.0;"/><line style="stroke:#A80036;stroke-width:1.0;" x1="201" x2="330" y1="244.0938" y2="244.0938"/><text fill="#000000" font-family="sans-serif" font-size="13" font-weight="bold" lengthAdjust="spacing" textLength="9" x="208" y="239.0278">6</text><text fill="#000000" font-family="sans-serif" font-size="13" lengthAdjust="spacing" textLength="98" x="221" y="239.0278">Another id user</text><polygon fill="#A80036" points="212,269.2266,202,273.2266,212,277.2266,208,273.2266" style="stroke:#A80036;stroke-width:1.0;"/><line style="stroke:#A80036;stroke-width:2.0;" x1="318" x2="328" y1="268.2266" y2="278.2266"/><line style="stroke:#A80036;stroke-width:2.0;" x1="318" x2="328" y1="278.2266" y2="268.2266"/><line style="stroke:#A80036;stroke-width:1.0;" x1="206" x2="323" y1="273.2266" y2="273.2266"/><text fill="#000000" font-family="sans-serif" font-size="13" font-weight="bold" lengthAdjust="spacing" textLength="9" x="218" y="268.1606">7</text><text fill="#000000" font-family="sans-serif" font-size="13" lengthAdjust="spacing" textLength="86" x="231" y="268.1606">no other user</text><polygon fill="#A80036" points="424,298.3594,434,302.3594,424,306.3594,428,302.3594" style="stroke:#A80036;stroke-width:1.0;"/><line style="stroke:#A80036;stroke-width:1.0;" x1="201" x2="430" y1="302.3594" y2="302.3594"/><text fill="#000000" font-family="sans-serif" font-size="13" font-weight="bold" lengthAdjust="spacing" textLength="9" x="208" y="297.2935">8</text><text fill="#000000" font-family="sans-serif" font-size="13" lengthAdjust="spacing" textLength="86" x="221" y="297.2935">no other user</text><polygon fill="#A80036" points="77,327.4922,67,331.4922,77,335.4922,73,331.4922" style="stroke:#A80036;stroke-width:1.0;"/><line style="stroke:#A80036;stroke-width:1.0;" x1="71" x2="435" y1="331.4922" y2="331.4922"/><text fill="#000000" font-family="sans-serif" font-size="13" font-weight="bold" lengthAdjust="spacing" textLength="9" x="83" y="326.4263">9</text><text fill="#000000" font-family="sans-serif" font-size="13" lengthAdjust="spacing" textLength="184" x="96" y="326.4263">ResourceNotFoundException</text><!--MD5=[edb7a0ddbb3dc03f54a4e27691033afc]
@startuml
'https://plantuml.com/sequence-diagram

autonumber
participant UserController
participant UserService
database DB_user.sql

UserController -> UserService: id user
UserService -> DB_user.sql: id user
DB_user.sql -> UserService: user
UserService -> UserController: user

UserController -> UserService: Another id user
UserService -> DB_user.sql: Another id user
DB_user.sql x-> UserService: no other user
UserService -> Exception: no other user
UserController <- Exception: ResourceNotFoundException
@enduml

@startuml

autonumber
participant UserController
participant UserService
database DB_user.sql

UserController -> UserService: id user
UserService -> DB_user.sql: id user
DB_user.sql -> UserService: user
UserService -> UserController: user

UserController -> UserService: Another id user
UserService -> DB_user.sql: Another id user
DB_user.sql x-> UserService: no other user
UserService -> Exception: no other user
UserController <- Exception: ResourceNotFoundException
@enduml

PlantUML version 1.2021.11beta6(Unknown compile time)
(GPL source distribution)
Java Runtime: Java(TM) SE Runtime Environment
JVM: Java HotSpot(TM) 64-Bit Server VM
Default Encoding: UTF-8
Language: en
Country: US
--></g></svg>