<?xml version="1.0" encoding="UTF-8" standalone="no"?><svg xmlns="http://www.w3.org/2000/svg" xmlns:xlink="http://www.w3.org/1999/xlink" contentScriptType="application/ecmascript" contentStyleType="text/css" height="417px" preserveAspectRatio="none" style="width:559px;height:417px;background:#FFFFFF;" version="1.1" viewBox="0 0 559 417" width="559px" zoomAndPan="magnify"><defs><filter height="300%" id="f1ebivvazmwc0d" width="300%" x="-1" y="-1"><feGaussianBlur result="blurOut" stdDeviation="2.0"/><feColorMatrix in="blurOut" result="blurOut2" type="matrix" values="0 0 0 0 0 0 0 0 0 0 0 0 0 0 0 0 0 0 .4 0"/><feOffset dx="4.0" dy="4.0" in="blurOut2" result="blurOut3"/><feBlend in="SourceGraphic" in2="blurOut3" mode="normal"/></filter></defs><g><line style="stroke:#A80036;stroke-width:1.0;stroke-dasharray:5.0,5.0;" x1="78" x2="78" y1="67.2969" y2="349.4922"/><line style="stroke:#A80036;stroke-width:1.0;stroke-dasharray:5.0,5.0;" x1="234" x2="234" y1="67.2969" y2="349.4922"/><line style="stroke:#A80036;stroke-width:1.0;stroke-dasharray:5.0,5.0;" x1="390.5" x2="390.5" y1="67.2969" y2="349.4922"/><line style="stroke:#A80036;stroke-width:1.0;stroke-dasharray:5.0,5.0;" x1="503.5" x2="503.5" y1="67.2969" y2="349.4922"/><rect fill="#FEFECE" filter="url(#f1ebivvazmwc0d)" height="30.2969" style="stroke:#A80036;stroke-width:1.5;" width="143" x="5" y="32"/><text fill="#000000" font-family="sans-serif" font-size="14" lengthAdjust="spacing" textLength="129" x="12" y="51.9951">ProductController</text><rect fill="#FEFECE" filter="url(#f1ebivvazmwc0d)" height="30.2969" style="stroke:#A80036;stroke-width:1.5;" width="143" x="5" y="348.4922"/><text fill="#000000" font-family="sans-serif" font-size="14" lengthAdjust="spacing" textLength="129" x="12" y="368.4873">ProductController</text><rect fill="#FEFECE" filter="url(#f1ebivvazmwc0d)" height="30.2969" style="stroke:#A80036;stroke-width:1.5;" width="123" x="171" y="32"/><text fill="#000000" font-family="sans-serif" font-size="14" lengthAdjust="spacing" textLength="109" x="178" y="51.9951">ProductService</text><rect fill="#FEFECE" filter="url(#f1ebivvazmwc0d)" height="30.2969" style="stroke:#A80036;stroke-width:1.5;" width="123" x="171" y="348.4922"/><text fill="#000000" font-family="sans-serif" font-size="14" lengthAdjust="spacing" textLength="109" x="178" y="368.4873">ProductService</text><text fill="#000000" font-family="sans-serif" font-size="14" lengthAdjust="spacing" textLength="110" x="332.5" y="63.9951">DB_product.sql</text><path d="M372.5,15 C372.5,5 390.5,5 390.5,5 C390.5,5 408.5,5 408.5,15 L408.5,41 C408.5,51 390.5,51 390.5,51 C390.5,51 372.5,51 372.5,41 L372.5,15 " fill="#FEFECE" filter="url(#f1ebivvazmwc0d)" style="stroke:#000000;stroke-width:1.5;"/><path d="M372.5,15 C372.5,25 390.5,25 390.5,25 C390.5,25 408.5,25 408.5,15 " fill="none" style="stroke:#000000;stroke-width:1.5;"/><text fill="#000000" font-family="sans-serif" font-size="14" lengthAdjust="spacing" textLength="110" x="332.5" y="361.4873">DB_product.sql</text><path d="M372.5,374.7891 C372.5,364.7891 390.5,364.7891 390.5,364.7891 C390.5,364.7891 408.5,364.7891 408.5,374.7891 L408.5,400.7891 C408.5,410.7891 390.5,410.7891 390.5,410.7891 C390.5,410.7891 372.5,410.7891 372.5,400.7891 L372.5,374.7891 " fill="#FEFECE" filter="url(#f1ebivvazmwc0d)" style="stroke:#000000;stroke-width:1.5;"/><path d="M372.5,374.7891 C372.5,384.7891 390.5,384.7891 390.5,384.7891 C390.5,384.7891 408.5,384.7891 408.5,374.7891 " fill="none" style="stroke:#000000;stroke-width:1.5;"/><rect fill="#FEFECE" filter="url(#f1ebivvazmwc0d)" height="30.2969" style="stroke:#A80036;stroke-width:1.5;" width="87" x="458.5" y="32"/><text fill="#000000" font-family="sans-serif" font-size="14" lengthAdjust="spacing" textLength="73" x="465.5" y="51.9951">Exception</text><rect fill="#FEFECE" filter="url(#f1ebivvazmwc0d)" height="30.2969" style="stroke:#A80036;stroke-width:1.5;" width="87" x="458.5" y="348.4922"/><text fill="#000000" font-family="sans-serif" font-size="14" lengthAdjust="spacing" textLength="73" x="465.5" y="368.4873">Exception</text><polygon fill="#A80036" points="222.5,94.4297,232.5,98.4297,222.5,102.4297,226.5,98.4297" style="stroke:#A80036;stroke-width:1.0;"/><line style="stroke:#A80036;stroke-width:1.0;" x1="78.5" x2="228.5" y1="98.4297" y2="98.4297"/><text fill="#000000" font-family="sans-serif" font-size="13" font-weight="bold" lengthAdjust="spacing" textLength="9" x="85.5" y="93.3638">1</text><text fill="#000000" font-family="sans-serif" font-size="13" lengthAdjust="spacing" textLength="64" x="98.5" y="93.3638">id product</text><polygon fill="#A80036" points="378.5,123.5625,388.5,127.5625,378.5,131.5625,382.5,127.5625" style="stroke:#A80036;stroke-width:1.0;"/><line style="stroke:#A80036;stroke-width:1.0;" x1="234.5" x2="384.5" y1="127.5625" y2="127.5625"/><text fill="#000000" font-family="sans-serif" font-size="13" font-weight="bold" lengthAdjust="spacing" textLength="9" x="241.5" y="122.4966">2</text><text fill="#000000" font-family="sans-serif" font-size="13" lengthAdjust="spacing" textLength="64" x="254.5" y="122.4966">id product</text><polygon fill="#A80036" points="245.5,152.6953,235.5,156.6953,245.5,160.6953,241.5,156.6953" style="stroke:#A80036;stroke-width:1.0;"/><line style="stroke:#A80036;stroke-width:1.0;" x1="239.5" x2="389.5" y1="156.6953" y2="156.6953"/><text fill="#000000" font-family="sans-serif" font-size="13" font-weight="bold" lengthAdjust="spacing" textLength="8" x="251.5" y="151.6294">3</text><text fill="#000000" font-family="sans-serif" font-size="13" lengthAdjust="spacing" textLength="49" x="263.5" y="151.6294">product</text><polygon fill="#A80036" points="89.5,181.8281,79.5,185.8281,89.5,189.8281,85.5,185.8281" style="stroke:#A80036;stroke-width:1.0;"/><line style="stroke:#A80036;stroke-width:1.0;" x1="83.5" x2="233.5" y1="185.8281" y2="185.8281"/><text fill="#000000" font-family="sans-serif" font-size="13" font-weight="bold" lengthAdjust="spacing" textLength="9" x="95.5" y="180.7622">4</text><text fill="#000000" font-family="sans-serif" font-size="13" lengthAdjust="spacing" textLength="49" x="108.5" y="180.7622">product</text><polygon fill="#A80036" points="222.5,210.9609,232.5,214.9609,222.5,218.9609,226.5,214.9609" style="stroke:#A80036;stroke-width:1.0;"/><line style="stroke:#A80036;stroke-width:1.0;" x1="78.5" x2="228.5" y1="214.9609" y2="214.9609"/><text fill="#000000" font-family="sans-serif" font-size="13" font-weight="bold" lengthAdjust="spacing" textLength="9" x="85.5" y="209.895">5</text><text fill="#000000" font-family="sans-serif" font-size="13" lengthAdjust="spacing" textLength="119" x="98.5" y="209.895">Another id product</text><polygon fill="#A80036" points="378.5,240.0938,388.5,244.0938,378.5,248.0938,382.5,244.0938" style="stroke:#A80036;stroke-width:1.0;"/><line style="stroke:#A80036;stroke-width:1.0;" x1="234.5" x2="384.5" y1="244.0938" y2="244.0938"/><text fill="#000000" font-family="sans-serif" font-size="13" font-weight="bold" lengthAdjust="spacing" textLength="9" x="241.5" y="239.0278">6</text><text fill="#000000" font-family="sans-serif" font-size="13" lengthAdjust="spacing" textLength="119" x="254.5" y="239.0278">Another id product</text><polygon fill="#A80036" points="245.5,269.2266,235.5,273.2266,245.5,277.2266,241.5,273.2266" style="stroke:#A80036;stroke-width:1.0;"/><line style="stroke:#A80036;stroke-width:2.0;" x1="372.5" x2="382.5" y1="268.2266" y2="278.2266"/><line style="stroke:#A80036;stroke-width:2.0;" x1="372.5" x2="382.5" y1="278.2266" y2="268.2266"/><line style="stroke:#A80036;stroke-width:1.0;" x1="239.5" x2="377.5" y1="273.2266" y2="273.2266"/><text fill="#000000" font-family="sans-serif" font-size="13" font-weight="bold" lengthAdjust="spacing" textLength="9" x="251.5" y="268.1606">7</text><text fill="#000000" font-family="sans-serif" font-size="13" lengthAdjust="spacing" textLength="107" x="264.5" y="268.1606">no other product</text><polygon fill="#A80036" points="492,298.3594,502,302.3594,492,306.3594,496,302.3594" style="stroke:#A80036;stroke-width:1.0;"/><line style="stroke:#A80036;stroke-width:1.0;" x1="234.5" x2="498" y1="302.3594" y2="302.3594"/><text fill="#000000" font-family="sans-serif" font-size="13" font-weight="bold" lengthAdjust="spacing" textLength="9" x="241.5" y="297.2935">8</text><text fill="#000000" font-family="sans-serif" font-size="13" lengthAdjust="spacing" textLength="107" x="254.5" y="297.2935">no other product</text><polygon fill="#A80036" points="89.5,327.4922,79.5,331.4922,89.5,335.4922,85.5,331.4922" style="stroke:#A80036;stroke-width:1.0;"/><line style="stroke:#A80036;stroke-width:1.0;" x1="83.5" x2="503" y1="331.4922" y2="331.4922"/><text fill="#000000" font-family="sans-serif" font-size="13" font-weight="bold" lengthAdjust="spacing" textLength="9" x="95.5" y="326.4263">9</text><text fill="#000000" font-family="sans-serif" font-size="13" lengthAdjust="spacing" textLength="184" x="108.5" y="326.4263">ResourceNotFoundException</text><!--MD5=[2e73f18b93a374a088252b0e518f7686]
@startuml
'https://plantuml.com/sequence-diagram

autonumber
participant ProductController
participant ProductService
database DB_product.sql

ProductController -> ProductService: id product
ProductService -> DB_product.sql: id product
DB_product.sql -> ProductService: product
ProductService -> ProductController: product

ProductController -> ProductService: Another id product
ProductService -> DB_product.sql: Another id product
DB_product.sql x-> ProductService: no other product
ProductService -> Exception: no other product
ProductController <- Exception: ResourceNotFoundException
@enduml

@startuml

autonumber
participant ProductController
participant ProductService
database DB_product.sql

ProductController -> ProductService: id product
ProductService -> DB_product.sql: id product
DB_product.sql -> ProductService: product
ProductService -> ProductController: product

ProductController -> ProductService: Another id product
ProductService -> DB_product.sql: Another id product
DB_product.sql x-> ProductService: no other product
ProductService -> Exception: no other product
ProductController <- Exception: ResourceNotFoundException
@enduml

PlantUML version 1.2021.11beta6(Unknown compile time)
(GPL source distribution)
Java Runtime: Java(TM) SE Runtime Environment
JVM: Java HotSpot(TM) 64-Bit Server VM
Default Encoding: UTF-8
Language: en
Country: US
--></g></svg>